<svg width="43" height="42" viewBox="0 0 43 42" fill="none" xmlns="http://www.w3.org/2000/svg">
<g filter="url(#filter0_d_8_1107)">
<path d="M38.3243 4.1281C37.0479 4.79144 35.6878 5.23113 34.2698 5.44462C35.7285 4.41275 36.8419 2.79125 37.3654 0.83681C36.0053 1.79751 34.5036 2.4761 32.9032 2.85479C31.6118 1.22567 29.7711 0.216675 27.7632 0.216675C23.8673 0.216675 20.731 3.9629 20.731 8.55546C20.731 9.21626 20.7782 9.85165 20.894 10.4565C15.0439 10.1185 9.86731 6.79672 6.38983 1.73651C5.78272 2.98441 5.4266 4.41275 5.4266 5.95039C5.4266 8.83757 6.68159 11.3969 8.55226 12.8786C7.42171 12.8532 6.3126 12.4643 5.37297 11.8518C5.37297 11.8773 5.37297 11.9103 5.37297 11.9433C5.37297 15.9945 7.81214 19.3595 11.0107 20.1347C10.438 20.3202 9.81368 20.4092 9.16581 20.4092C8.7153 20.4092 8.26051 20.3787 7.8336 20.2669C8.74534 23.5683 11.3325 25.9955 14.4089 26.0743C12.0147 28.293 8.97488 29.6299 5.68404 29.6299C5.10696 29.6299 4.55348 29.5994 4 29.5155C7.11708 31.8969 10.8112 33.2567 14.795 33.2567C27.7439 33.2567 34.8232 20.549 34.8232 9.53395C34.8232 9.16543 34.8125 8.80962 34.7975 8.45634C36.1941 7.28215 37.3675 5.81568 38.3243 4.1281Z" fill="#0052FE"/>
</g>
<defs>
<filter id="filter0_d_8_1107" x="0" y="0.216675" width="42.3242" height="41.04" filterUnits="userSpaceOnUse" color-interpolation-filters="sRGB">
<feFlood flood-opacity="0" result="BackgroundImageFix"/>
<feColorMatrix in="SourceAlpha" type="matrix" values="0 0 0 0 0 0 0 0 0 0 0 0 0 0 0 0 0 0 127 0" result="hardAlpha"/>
<feOffset dy="4"/>
<feGaussianBlur stdDeviation="2"/>
<feComposite in2="hardAlpha" operator="out"/>
<feColorMatrix type="matrix" values="0 0 0 0 0 0 0 0 0 0 0 0 0 0 0 0 0 0 0.25 0"/>
<feBlend mode="normal" in2="BackgroundImageFix" result="effect1_dropShadow_8_1107"/>
<feBlend mode="normal" in="SourceGraphic" in2="effect1_dropShadow_8_1107" result="shape"/>
</filter>
</defs>
</svg>
