<svg width="34" height="33" viewBox="0 0 34 33" fill="none" xmlns="http://www.w3.org/2000/svg">
<path d="M31.2871 3.97773L34 0.905751V0.233337H24.6018L17.9038 19.9664L10.2836 0.233337H0.42925V0.905751L3.59833 5.42149C3.90717 5.75518 4.06867 6.24314 4.02758 6.73445V24.4805C4.12533 25.1193 3.94967 25.7767 3.57 26.2412L0 31.3622V32.0263H10.1221V31.3538L6.55208 26.2412C6.16533 25.775 5.98258 25.1294 6.0605 24.4805V9.13066L14.9458 32.0346H15.9786L23.6187 9.13066V27.3764C23.6187 27.8576 23.6187 27.9566 23.3523 28.2718L20.604 31.4192V32.0933H33.9377V31.4209L31.2885 28.3506C31.0562 28.1427 30.9357 27.7939 30.9853 27.4552V4.87316C30.9357 4.53276 31.0547 4.18398 31.2871 3.97773Z" fill="#0052FE"/>
</svg>
