<svg width="174" height="51" viewBox="0 0 174 51" fill="none" xmlns="http://www.w3.org/2000/svg">
<path fill-rule="evenodd" clip-rule="evenodd" d="M93.8047 16.5883H99.9841V38.0352H93.8047V16.5883Z" fill="white"/>
<path d="M89.8228 25.3392C89.1564 24.1212 88.2038 23.0802 87.0548 22.3098C88.4754 20.7046 89.3131 18.5726 89.2107 16.2386C89.0018 11.6103 85.0326 8.03754 80.3865 8.03754H67.5054V38.0333H82.2437C87.0047 38.0333 90.8653 34.1878 90.8653 29.4387C90.8653 27.9542 90.4892 26.5592 89.8228 25.3392ZM81.2848 32.9427H73.6827V25.5807H81.241C83.2256 25.5807 84.9052 27.1526 84.9052 29.2638C84.9052 31.3479 83.2298 32.9427 81.2848 32.9427ZM79.67 20.4901H73.6827V13.1302H79.624C81.6107 13.1302 83.2903 14.7 83.2903 16.8112C83.2862 18.8932 81.6107 20.4901 79.67 20.4901Z" fill="white"/>
<path d="M173.084 8.92657H165.975L160.423 17.7981L154.872 8.92657H147.761L156.869 23.4799L147.761 38.0354H154.872L160.423 29.1639L165.975 38.0354H173.084L163.978 23.4799L173.084 8.92657Z" fill="white"/>
<path d="M122.022 26.1055V38.0334H115.844V25.0374C115.844 23.147 114.28 21.6208 112.366 21.675C110.523 21.7312 109.101 23.3364 109.101 25.1769V38.0293H102.921V16.5823H109.101V17.6046C110.492 16.9488 112.042 16.5823 113.682 16.5823C114.503 16.5823 115.303 16.6739 116.072 16.8488C119.496 17.6254 121.915 20.6735 122.003 24.1713C122.015 24.8001 122.022 25.4497 122.022 26.1055Z" fill="white"/>
<path fill-rule="evenodd" clip-rule="evenodd" d="M93.8047 8.03754H99.9841V14.1962H93.8047V8.03754Z" fill="white"/>
<path d="M146.107 16.5885H135.451C135.415 16.5885 135.382 16.5843 135.344 16.5843C129.403 16.5843 124.586 21.3875 124.586 27.3109C124.586 33.2051 129.355 37.9854 135.252 38.0291C135.28 38.0354 135.311 38.0354 135.344 38.0354C137.638 38.0354 139.928 38.7058 139.928 40.6941C139.928 42.7116 137.853 44.4251 135.344 44.4251C132.814 44.4251 130.763 42.3806 130.763 39.8592H124.583C124.583 45.7805 129.403 50.5838 135.342 50.5838C141.288 50.5838 146.101 45.7805 146.101 39.8592C146.101 39.8592 146.22 36.655 143.494 34.3106C145.123 32.4347 146.103 29.9925 146.103 27.3109C146.103 25.2434 145.518 23.3155 144.501 21.679H146.107V16.5885ZM135.344 31.8768C132.814 31.8768 130.763 29.8322 130.763 27.3109C130.763 24.7895 132.814 22.745 135.344 22.745C137.874 22.745 139.928 24.7895 139.928 27.3109C139.928 29.8322 137.874 31.8768 135.344 31.8768Z" fill="white"/>
<path d="M57.3675 0.615173C50.7577 0.615173 44.2231 2.28079 38.4656 5.43506C35.3822 7.12358 32.5348 9.2181 30.0049 11.6645C29.4095 12.237 28.8267 12.8367 28.2689 13.4488C26.4034 15.4975 24.7488 17.7461 23.3596 20.13C22.8666 20.9857 22.3193 21.8206 21.7343 22.618C21.657 22.7221 21.5839 22.8262 21.5004 22.9282C16.3842 29.6761 8.58994 33.5445 0.116699 33.5445V46.0116C6.7265 46.0116 13.2611 44.346 19.0185 41.1938C22.0957 39.5095 24.9431 37.4108 27.4793 34.9644C28.0746 34.3898 28.6575 33.7902 29.2174 33.1801C31.085 31.1293 32.7332 28.8849 34.1225 26.4989L34.2144 26.3448C34.6844 25.5412 35.2025 24.7583 35.7478 24.013C35.8251 23.911 35.9024 23.8048 35.9838 23.6965C41.0979 16.9507 48.8942 13.0803 57.3675 13.0803V0.615173Z" fill="white"/>
<path d="M57.3675 33.5489C48.8942 33.5489 41.0979 29.6784 35.9797 22.9305C35.9044 22.8285 35.8251 22.7265 35.7478 22.6162C35.1649 21.825 34.6176 20.988 34.1246 20.1302C32.7353 17.7484 31.0829 15.5019 29.2153 13.4511C28.6575 12.8431 28.0746 12.2435 27.4793 11.6689C24.9494 9.22249 22.1041 7.12589 19.0185 5.43945C13.2611 2.28726 6.7265 0.621643 0.116699 0.621643V13.0888C8.58994 13.0888 16.3863 16.9572 21.5045 23.7051C21.5839 23.8071 21.6591 23.9133 21.7364 24.0153C22.2858 24.7627 22.8039 25.5476 23.2677 26.343L23.3659 26.5054C24.753 28.8851 26.4034 31.1296 28.2689 33.1824C28.8246 33.7904 29.4095 34.39 30.0049 34.9646C32.539 37.411 35.3864 39.5097 38.4656 41.1941C44.2231 44.3463 50.7577 46.0119 57.3675 46.0119V33.5489Z" fill="white"/>
</svg>
