<svg width="58" height="58" viewBox="0 0 58 58" fill="none" xmlns="http://www.w3.org/2000/svg">
<path fill-rule="evenodd" clip-rule="evenodd" d="M49.8334 34.8195C48.8206 35.4513 47.6255 35.5311 46.7207 35.0256C45.5729 34.3871 44.9382 32.8839 44.9382 30.802V24.563C44.9382 21.5499 43.7296 19.4082 41.704 18.8295C38.2808 17.8451 35.7016 21.9756 34.7293 23.5254L28.6863 33.1766V21.377C28.6188 18.6632 27.7208 17.0403 26.0261 16.5481C24.8985 16.2222 23.2172 16.3552 21.5833 18.8162L8.04566 40.2337C6.23614 36.8415 5.29087 33.0701 5.29087 29.2389C5.29762 16.3352 15.7901 5.84598 28.6931 5.84598C41.596 5.84598 52.0885 16.3419 52.0885 29.2389C52.0885 29.2589 52.0885 29.2788 52.0953 29.2988C52.0953 29.3187 52.0953 29.3387 52.0953 29.3653C52.2168 31.8662 51.3931 33.8483 49.8401 34.8195H49.8334ZM57.2807 29.2389V29.1059C57.2065 13.3953 44.4116 0.637939 28.6863 0.637939C12.9611 0.637939 0.0986328 13.4685 0.0986328 29.2389C0.0986328 45.0094 12.9273 57.8333 28.6931 57.8333C35.9244 57.8333 42.8316 55.1262 48.1319 50.2108C49.1852 49.233 49.2459 47.5901 48.2737 46.5392C47.7875 46.0071 47.0921 45.7078 46.3696 45.7078C45.7147 45.7078 45.08 45.9539 44.6006 46.3995C40.3064 50.4037 34.6145 52.6385 28.6998 52.6385C21.7926 52.6385 15.5808 49.6255 11.2933 44.8498L23.5008 25.5341V34.4403C23.5008 38.7172 25.1821 40.1007 26.5932 40.5064C28.0044 40.9121 30.165 40.6328 32.4336 37.0078L39.1518 26.2857C39.3679 25.9398 39.5637 25.6405 39.746 25.3811V30.802C39.746 34.7995 41.3732 37.9988 44.2022 39.5685C46.7545 40.9853 49.9684 40.8589 52.5814 39.236C55.7548 37.2605 57.463 33.6289 57.2807 29.2456V29.2389Z" fill="white"/>
</svg>
