<svg width="79" height="88" viewBox="0 0 79 88" fill="none" xmlns="http://www.w3.org/2000/svg">
<path d="M30.9735 20.0144C29.988 19.8783 29.9411 19.8329 30.4104 19.7875C31.302 19.6514 33.3667 19.8329 34.8214 20.1506C38.2001 20.9221 41.2504 22.919 44.4883 26.4136L45.3329 27.3667L46.553 27.1851C51.7619 26.3682 57.1115 27.0036 61.5695 29.0005C62.7896 29.5451 64.7135 30.6343 64.9482 30.9067C65.042 30.9974 65.1828 31.5874 65.2767 32.1774C65.6051 34.3105 65.4644 35.8989 64.7605 37.1243C64.3851 37.8051 64.385 37.9866 64.6197 38.5766C64.8074 39.0304 65.3705 39.3481 65.8867 39.3481C67.0129 39.3481 68.1861 37.6235 68.7492 35.2182L68.9838 34.2651L69.4062 34.7189C71.7994 37.3058 73.6765 40.8912 73.958 43.4327L74.0519 44.1135L73.6295 43.5235C72.9256 42.4796 72.2687 41.7989 71.3771 41.2089C69.7816 40.165 68.0922 39.8473 63.6342 39.6204C59.5986 39.3935 57.2992 39.0758 55.0467 38.3497C51.1987 37.1243 49.2278 35.5358 44.676 29.6813C42.6581 27.0944 41.3911 25.6875 40.1241 24.5075C37.3555 21.9206 34.5868 20.5591 30.9735 20.0144Z" fill="white"/>
<path d="M65.9336 25.7782C66.0275 24.0536 66.2621 22.919 66.7783 21.8752C66.966 21.4667 67.1537 21.1037 67.2006 21.1037C67.2476 21.1037 67.1537 21.4214 67.0129 21.7844C66.6375 22.7829 66.5906 24.1898 66.8252 25.7782C67.1537 27.8205 67.2945 28.0928 69.5469 30.3167C70.5793 31.3605 71.7994 32.6766 72.2687 33.2212L73.0664 34.2197L72.2687 33.4936C71.2832 32.5859 69.0308 30.8613 68.5146 30.6343C68.1861 30.4528 68.1392 30.4528 67.9045 30.6797C67.7168 30.8613 67.6699 31.1336 67.6699 32.4497C67.623 34.492 67.3414 35.7628 66.6375 37.0789C66.2621 37.7597 66.2152 37.6235 66.5437 36.852C66.7783 36.262 66.8252 35.9897 66.8252 34.0382C66.8252 30.0897 66.356 29.1367 63.4935 27.5482C62.7896 27.1398 61.5695 26.5498 60.8656 26.2321C60.1148 25.9144 59.5516 25.6421 59.5986 25.6421C59.6924 25.5513 62.4611 26.3228 63.5404 26.7767C65.1828 27.4121 65.4644 27.4575 65.6521 27.4121C65.7928 27.2759 65.8867 26.9128 65.9336 25.7782Z" fill="white"/>
<path d="M32.8975 32.5405C30.9266 29.9082 29.6595 25.8236 29.9411 22.7829L30.035 21.8298L30.5042 21.9206C31.3489 22.0567 32.8036 22.6013 33.5075 23.0098C35.3846 24.099 36.2292 25.5967 37.027 29.3182C37.2616 30.4074 37.5901 31.6782 37.7309 32.0866C37.9655 32.7674 38.8571 34.3559 39.6079 35.3543C40.1241 36.0805 39.7956 36.4435 38.6225 36.3528C36.8393 36.1712 34.446 34.5828 32.8975 32.5405Z" fill="white"/>
<path d="M63.5404 52.2826C54.249 48.6519 50.9641 45.5204 50.9641 40.2104C50.9641 39.4389 51.011 38.8035 51.011 38.8035C51.058 38.8035 51.3864 39.0758 51.8088 39.3935C53.6858 40.8458 55.7975 41.4812 61.6633 42.2981C65.0889 42.7973 67.0599 43.1604 68.8431 43.7504C74.5211 45.5658 78.0406 49.2873 78.8853 54.3249C79.1199 55.7772 78.9791 58.5456 78.6037 59.9979C78.2753 61.1325 77.3367 63.2202 77.1021 63.2656C77.0552 63.2656 76.9613 63.0387 76.9613 62.6756C76.8675 60.7695 75.882 58.9541 74.2396 57.5472C72.2687 55.9134 69.7347 54.688 63.5404 52.2826Z" fill="white"/>
<path d="M56.9707 53.7803C56.8768 53.0995 56.6422 52.2372 56.5014 51.8742L56.2668 51.1934L56.6891 51.6926C57.2992 52.3734 57.7684 53.1903 58.1908 54.3249C58.5193 55.1872 58.5193 55.4595 58.5193 56.8664C58.5193 58.228 58.4723 58.5456 58.1908 59.3172C57.7215 60.5425 57.1584 61.4048 56.2199 62.3579C54.5305 64.0371 52.325 64.9448 49.1809 65.3533C48.6178 65.3987 47.0223 65.5348 45.6145 65.6256C42.095 65.8071 39.7487 66.1702 37.637 66.8963C37.3555 66.9871 37.0739 67.0779 37.027 67.0325C36.9331 66.9417 38.3878 66.1248 39.561 65.5802C41.2034 64.8087 42.8928 64.4002 46.6 63.7648C48.4301 63.4925 50.3071 63.1294 50.7764 62.9479C55.4221 61.541 57.7215 58.0464 56.9707 53.7803Z" fill="white"/>
<path d="M61.241 61.0872C60.0209 58.5003 59.7393 56.0495 60.3963 53.7349C60.4902 53.508 60.584 53.2811 60.6779 53.2811C60.7717 53.2811 61.0533 53.4172 61.3348 53.5988C61.8979 53.9618 63.0711 54.5972 66.0744 56.1857C69.8754 58.1826 72.034 59.7256 73.5357 61.4956C74.8496 63.0387 75.6474 64.8087 76.0228 66.9871C76.2574 68.2125 76.1166 71.1625 75.7882 72.3878C74.7558 76.2455 72.4095 79.3316 68.9838 81.1016C68.4676 81.3739 68.0453 81.5554 67.9984 81.5554C67.9514 81.5554 68.1392 81.1016 68.4207 80.557C69.5469 78.2424 69.6877 76.0186 68.843 73.5224C68.3269 71.9794 67.2475 70.1186 65.0889 66.9871C62.508 63.3564 61.8979 62.4033 61.241 61.0872Z" fill="white"/>
<path d="M26.2808 74.9747C29.7534 72.1609 34.0237 70.164 37.9655 69.5286C39.6549 69.2563 42.4704 69.3471 44.019 69.7555C46.5061 70.3909 48.7586 71.7525 49.9317 73.4317C51.058 75.0655 51.5742 76.4724 52.0903 79.6039C52.278 80.8293 52.5127 82.1001 52.5596 82.3724C52.935 84.0062 53.6858 85.2769 54.6244 85.9577C56.0791 87.0015 58.6131 87.0469 61.1002 86.1392C61.5225 86.0031 61.898 85.8669 61.898 85.9123C61.9918 86.0031 60.7248 86.82 59.8801 87.2285C58.707 87.8185 57.7684 88 56.5014 88C54.249 88 52.325 86.8654 50.7764 84.5962C50.4479 84.1423 49.791 82.8262 49.2278 81.6008C47.5854 77.9247 46.7407 76.8355 44.8168 75.6101C43.1274 74.5663 40.9688 74.3394 39.3264 75.1109C37.1678 76.1093 36.6046 78.787 38.1063 80.4208C38.7163 81.1016 39.8426 81.6462 40.7811 81.7824C42.5174 82.0093 44.019 80.6931 44.019 79.0139C44.019 77.9247 43.5967 77.2893 42.4704 76.7901C40.9688 76.1547 39.3264 76.8809 39.3733 78.2878C39.3733 78.8778 39.6549 79.2408 40.2649 79.5132C40.6403 79.6947 40.6403 79.6947 40.3588 79.6493C38.9979 79.377 38.6694 77.7432 39.7487 76.6993C41.0626 75.4286 43.8313 75.9732 44.7698 77.7432C45.1452 78.4693 45.1922 79.9216 44.8637 80.8293C44.0659 82.8262 41.8135 83.87 39.5141 83.28C37.9655 82.8716 37.3085 82.4631 35.4315 80.6024C32.1466 77.3347 30.8796 76.6993 26.187 76.0186L25.2954 75.8824L26.2808 74.9747Z" fill="white"/>
<path fill-rule="evenodd" clip-rule="evenodd" d="M1.59758 1.95152C12.5314 14.7953 29.378 34.7643 30.2227 35.8535C30.9266 36.7612 30.645 37.6235 29.4718 38.2589C28.8149 38.622 27.454 38.985 26.797 38.985C26.0462 38.985 25.1546 38.622 24.5446 38.032C24.1222 37.6235 22.2921 35.0366 18.1626 28.819C15.0185 24.0536 12.3437 20.1052 12.2968 20.0598C12.1091 19.9691 12.1091 19.9691 17.8341 29.8628C21.4474 36.0805 22.6206 38.3043 22.6206 38.5766C22.6206 39.1666 22.4329 39.4843 21.6821 40.3012C20.4151 41.6627 19.8519 43.2058 19.4296 46.4281C18.9603 50.0134 17.6933 52.5549 14.08 56.8664C11.9683 59.4079 11.6398 59.8618 11.1236 60.9056C10.4667 62.1764 10.279 62.9025 10.1851 64.5364C10.0913 66.261 10.279 67.3502 10.7951 68.984C11.2644 70.4363 11.7806 71.3894 13.0476 73.2501C14.1269 74.884 14.7839 76.1093 14.7839 76.5632C14.7839 76.9263 14.8777 76.9263 16.5671 76.5632C20.6028 75.6555 23.9345 74.1124 25.7647 72.2063C26.8909 71.0263 27.1724 70.3909 27.1724 68.7571C27.1724 67.7133 27.1255 67.4863 26.844 66.851C26.3747 65.8525 25.4831 65.0356 23.5591 63.7648C21.0251 62.0856 19.9458 60.7241 19.6642 58.9087C19.4296 57.3657 19.7112 56.3218 21.1189 53.4626C22.5737 50.5126 22.9491 49.2873 23.1837 46.2919C23.3245 44.3858 23.5591 43.6142 24.1222 43.0242C24.7323 42.3889 25.2485 42.1619 26.7032 41.9804C29.0964 41.6627 30.645 41.0727 31.8651 39.9381C32.9444 38.985 33.4137 38.032 33.4606 36.6251L33.5075 35.5812L32.8975 34.9458C30.6919 32.4951 0.142866 0 0.00208731 0C-0.044839 0 0.705983 0.8623 1.59758 1.95152ZM16.004 66.4879C16.5202 65.6256 16.2386 64.5364 15.3939 63.9917C14.5962 63.4925 13.3761 63.7194 13.3761 64.4002C13.3761 64.5817 13.47 64.7633 13.7515 64.854C14.1738 65.081 14.2208 65.3079 13.8923 65.8071C13.5638 66.3063 13.5638 66.7602 13.9861 67.0779C14.6431 67.5771 15.5347 67.3048 16.004 66.4879Z" fill="white"/>
<path fill-rule="evenodd" clip-rule="evenodd" d="M35.0091 42.6158C33.8829 42.9335 32.8036 44.1135 32.4751 45.2935C32.2874 46.0196 32.3813 47.3357 32.7098 47.7442C33.2259 48.3796 33.6952 48.5611 35.0091 48.5611C37.5901 48.5611 39.7956 47.4719 40.0303 46.1557C40.2649 45.0665 39.2794 43.5689 37.9186 42.8881C37.2147 42.525 35.76 42.3889 35.0091 42.6158ZM38.0124 44.885C38.3878 44.3404 38.2471 43.7504 37.5432 43.3419C36.2762 42.5704 34.3522 43.2058 34.3522 44.3858C34.3522 44.9758 35.3376 45.6111 36.2762 45.6111C36.8862 45.6111 37.7309 45.2481 38.0124 44.885Z" fill="white"/>
</svg>
