<svg width="57" height="59" viewBox="0 0 57 59" fill="none" xmlns="http://www.w3.org/2000/svg">
<path d="M12.3067 28.0636C12.3067 27.7438 12.3689 27.4271 12.4896 27.1318C12.6102 26.8365 12.787 26.5684 13.0098 26.3428C13.2326 26.1172 13.497 25.9386 13.7878 25.8172C14.0786 25.6959 14.3901 25.6342 14.7044 25.6357L18.6798 25.6489C19.3137 25.6489 19.9216 25.9051 20.3698 26.3611C20.8179 26.8171 21.0698 27.4356 21.0698 28.0805V43.3747C21.5173 43.2398 22.0921 43.0955 22.721 42.9448C23.1579 42.8405 23.5473 42.589 23.8259 42.2312C24.1046 41.8731 24.2562 41.4301 24.2561 40.9733V22.0014C24.2561 21.3565 24.5079 20.7379 24.956 20.2818C25.4042 19.8257 26.0121 19.5695 26.646 19.5693H30.6293C31.2632 19.5695 31.871 19.8257 32.3192 20.2818C32.7674 20.7379 33.0192 21.3565 33.0192 22.0014V39.6092C33.0192 39.6092 34.0165 39.1987 34.9879 38.7815C35.3488 38.626 35.6567 38.3662 35.8734 38.0339C36.09 37.7017 36.2057 37.312 36.206 36.9133V15.9223C36.206 15.2775 36.4577 14.6591 36.9058 14.2031C37.3539 13.747 37.9616 13.4908 38.5954 13.4907H42.5788C43.2126 13.4907 43.8206 13.7469 44.2685 14.2029C44.7167 14.6589 44.9688 15.2774 44.9688 15.9223V33.208C48.422 30.6614 51.9216 27.5988 54.6988 23.916C55.1019 23.3815 55.3686 22.7538 55.4748 22.0889C55.5813 21.4241 55.5244 20.7427 55.3094 20.1057C54.0239 16.3422 51.9804 12.8933 49.3097 9.97961C46.639 7.0659 43.3996 4.75154 39.7994 3.18465C36.1991 1.61777 32.317 0.832879 28.4015 0.880192C24.4859 0.927504 20.6232 1.80599 17.0605 3.45942C13.4978 5.11284 10.3136 7.50481 7.71161 10.4823C5.10963 13.4597 3.1472 16.957 1.94989 20.7504C0.752581 24.5438 0.346774 28.5498 0.758433 32.5119C1.17009 36.4741 2.39015 40.3053 4.34054 43.7602C4.68032 44.356 5.18014 44.8409 5.78136 45.1579C6.38262 45.4749 7.06023 45.6106 7.73468 45.5493C8.48812 45.482 9.42622 45.3863 10.5416 45.2532C11.0271 45.1972 11.4754 44.9613 11.801 44.5904C12.1266 44.22 12.3067 43.7404 12.3071 43.2432V28.0636" fill="white"/>
<path d="M12.2196 52.5944C16.4183 55.7024 21.3802 57.5678 26.5563 57.9843C31.7324 58.4011 36.9209 57.3525 41.5475 54.9551C46.1742 52.5574 50.0592 48.904 52.7718 44.3994C55.4843 39.8948 56.9194 34.7145 56.9179 29.4315C56.9179 28.7723 56.8878 28.1201 56.8448 27.4717C46.5618 43.0757 27.5757 50.3709 12.2206 52.5918" fill="#C0D0DB"/>
</svg>
